# xmcd
#
# Track frame offsets: 
#        150
#        17318
#        33114
#        49063
#
# Disc length: 887 seconds
#
# Revision: 0
# Processed by: cddbd v1.5.2PL0 Copyright (c) Steve Scherf et al.
# Submitted via: ExactAudioCopyFreeDBPlugin 1.0
#
DISCID=1f037504
DTITLE=Caitlin - Caitlin
DYEAR=2014
DGENRE=Vocal
TTITLE0=The Real Stuff
TTITLE1=On My Own
TTITLE2=Siberia
TTITLE3=Veins
EXTD=
EXTT0=
EXTT1=
EXTT2=
EXTT3=
PLAYORDER=
